<?xml version="1.0" encoding="UTF-8" standalone="no"?>
<!-- Created with Inkscape (http://www.inkscape.org/) -->

<svg
   version="1.1"
   id="svg54"
   width="122.88"
   height="94.720001"
   viewBox="0 0 122.88 94.720001"
   xmlns="http://www.w3.org/2000/svg"
   xmlns:svg="http://www.w3.org/2000/svg">
  <defs
     id="defs58" />
  <g
     id="g60">
    <path
       style="fill:#000000;stroke-width:0.32"
       d="M 36.523408,91.667915 C 18.536973,88.506494 1.9907479,72.035367 1.8179723,57.120001 1.5965187,38.002365 26.446372,33.724948 46.547117,49.420749 59.125274,59.242487 64.609078,73.60347 59.466038,83.252801 57.47625,86.986027 53.359475,90.078001 48.64,91.383886 c -2.557526,0.70767 -8.865136,0.855529 -12.116592,0.284029 z m 10.80681,-3.840644 C 56.048899,85.772132 59.835126,77.926801 56.619261,68.579726 52.644067,57.025617 39.28767,46.312173 25.961163,43.988224 12.081183,41.567757 3.0634954,49.327799 6.0428954,61.128602 9.1569213,73.462631 22.323838,85.019902 36.48,87.844795 c 2.895808,0.577865 8.361805,0.569036 10.850218,-0.01754 z M 35.266035,75.661281 c -7.778416,-2.299715 -15.199176,-8.6364 -17.690211,-15.105908 -0.964935,-2.506048 -0.993601,-5.543168 -0.06887,-7.29678 1.241208,-2.353764 1.531479,-2.290138 1.54586,0.338838 0.01144,2.091837 0.155012,2.628291 1.341491,5.012554 1.62884,3.273203 3.961098,6.09863 7.125695,8.63247 2.871352,2.299043 7.9472,4.862522 11.04,5.575584 3.069962,0.707795 7.214755,0.534535 9.04,-0.377891 1.48433,-0.742003 1.529693,-0.728368 1.000899,0.30089 -1.815693,3.534124 -7.24039,4.722099 -13.334864,2.920243 z M 78.72,75.859834 c -9.627686,-1.776108 -15.36,-7.654656 -15.36,-15.75184 0,-3.188259 0.394294,-4.836457 1.977786,-8.267369 6.79512,-14.72282 28.842172,-24.365416 44.145424,-19.307639 6.44861,2.13129 10.60358,6.688205 11.51546,12.62943 0.29914,1.94906 0.27224,2.828314 -0.15526,5.074141 -2.10389,11.052759 -13.29497,21.054484 -27.753669,24.804093 -2.727184,0.707248 -4.198359,0.883536 -8.129741,0.974173 -2.64,0.06086 -5.448,-0.0089 -6.24,-0.154989 z m 11.708022,-4.020028 c 9.421079,-1.782336 19.150088,-7.929658 23.783928,-15.028001 2.45683,-3.763478 3.02418,-5.498774 3.03796,-9.291804 0.01,-2.615172 -0.11418,-3.473095 -0.67675,-4.694295 -1.44541,-3.137603 -4.40311,-5.502982 -8.6551,-6.921792 -2.25601,-0.75279 -2.93684,-0.826406 -7.59806,-0.821536 -4.569002,0.0048 -5.464374,0.09924 -8.32,0.877821 -10.530061,2.870995 -19.451795,9.416454 -23.17144,16.999802 -2.045536,4.170294 -2.392749,6.974473 -1.301171,10.508592 1.436179,4.649798 6.162829,7.934665 12.704003,8.828867 2.544179,0.347795 6.995133,0.148026 10.19663,-0.457654 z M 82.4,62.293745 C 81.696,62.059348 80.673376,61.634721 80.127501,61.350129 79.116768,60.823188 77.12,58.768263 77.12,58.255037 c 0,-0.155481 -0.0937,-0.526873 -0.208224,-0.825318 -0.161565,-0.421034 0.07148,-0.357968 1.04,0.281424 4.227683,2.791027 12.186038,2.193501 18.960624,-1.423594 5.63709,-3.00976 9.22579,-7.06904 10.12997,-11.458304 l 0.35654,-1.730755 0.57519,1.212125 c 0.77824,1.640025 0.58339,4.593283 -0.44262,6.708701 -1.97451,4.070998 -7.873438,8.555939 -13.763419,10.464301 C 90.162794,62.651725 84.654202,63.044289 82.4,62.293745 Z M 48.960461,40.279268 C 37.311802,38.931162 27.516909,32.576487 24.728404,24.55814 22.729606,18.8106 24.887191,12.434464 30.176229,8.4586222 36.685626,3.5654208 45.873402,1.6149681 55.606195,3.0601493 71.84911,5.4719898 82.46633,16.693047 78.595533,27.356969 c -0.977168,2.692069 -2.067543,4.249135 -4.6016,6.57114 -5.430163,4.975757 -15.294103,7.478304 -25.033472,6.351159 z M 61.39871,36.016615 C 68.183846,34.32842 73.204141,30.793084 75.075075,26.385597 75.402931,25.613239 75.615104,24.246034 75.619488,22.8775 75.640928,16.176276 69.051539,10.2562 58.249856,7.2722081 56.205834,6.7075425 54.917011,6.605329 49.76,6.5988993 42.778758,6.5901953 40.531846,7.0244065 36,9.2579921 27.532817,13.431164 25.299714,20.641912 30.387558,27.380713 c 3.08129,4.081139 9.961524,7.68779 17.033008,8.928782 3.370368,0.591472 11.072388,0.430096 13.978144,-0.29288 z M 50.301715,28.155488 C 45.895296,27.542639 41.943706,25.879931 39.466176,23.596222 37.483434,21.768594 36.743814,20.218165 36.863926,18.141243 L 36.96,16.48 l 0.693027,1.294384 c 4.151498,7.753835 21.329162,9.960049 28.021306,3.598919 0.609462,-0.579317 1.182349,-1.269303 1.273081,-1.533303 0.326893,-0.95115 0.6312,-0.01396 0.413626,1.273853 -0.46735,2.766207 -3.706451,5.436487 -7.925603,6.533779 -2.41145,0.627155 -6.601027,0.860105 -9.133722,0.507856 z"
       id="path222" />
  </g>
</svg>
